<?xml version="1.0" encoding="UTF-8" standalone="no"?>
<!-- Created with Inkscape (http://www.inkscape.org/) -->

<svg
   xmlns:dc="http://purl.org/dc/elements/1.1/"
   xmlns:cc="http://creativecommons.org/ns#"
   xmlns:rdf="http://www.w3.org/1999/02/22-rdf-syntax-ns#"
   xmlns:svg="http://www.w3.org/2000/svg"
   xmlns="http://www.w3.org/2000/svg"
   xmlns:sodipodi="http://sodipodi.sourceforge.net/DTD/sodipodi-0.dtd"
   xmlns:inkscape="http://www.inkscape.org/namespaces/inkscape"
   id="svg2"
   version="1.1"
   inkscape:version="0.48.5 r10040"
   width="116.25"
   height="67.5"
   xml:space="preserve"
   sodipodi:docname="logo.pdf"><metadata
     id="metadata8"><rdf:RDF><cc:Work
         rdf:about=""><dc:format>image/svg+xml</dc:format><dc:type
           rdf:resource="http://purl.org/dc/dcmitype/StillImage" /><dc:title></dc:title></cc:Work></rdf:RDF></metadata><defs
     id="defs6"><clipPath
       clipPathUnits="userSpaceOnUse"
       id="clipPath18"><path
         d="m 0,0 922.23,0 0,538.586 L 0,538.586 0,0 z"
         id="path20" /></clipPath></defs><sodipodi:namedview
     pagecolor="#ffffff"
     bordercolor="#666666"
     borderopacity="1"
     objecttolerance="10"
     gridtolerance="10"
     guidetolerance="10"
     inkscape:pageopacity="0"
     inkscape:pageshadow="2"
     inkscape:window-width="640"
     inkscape:window-height="480"
     id="namedview4"
     showgrid="false"
     inkscape:zoom="3.4962963"
     inkscape:cx="58.125"
     inkscape:cy="33.75"
     inkscape:window-x="271"
     inkscape:window-y="47"
     inkscape:window-maximized="0"
     inkscape:current-layer="g10" /><g
     id="g10"
     inkscape:groupmode="layer"
     inkscape:label="logo"
     transform="matrix(1.25,0,0,-1.25,0,67.5)"><g
       id="g12"
       transform="scale(0.1,0.1)"><g
         id="g14"><g
           id="g16"
           clip-path="url(#clipPath18)"><path
             d="m 185.602,538.586 c 77.55,0 140.449,-62.867 140.449,-140.449 0,-52.102 -24.153,-97.317 -63.223,-121.828 -0.765,-0.485 -1.32,-1.211 -1.32,-2.161 0,-1.714 1.359,-2.152 1.453,-2.191 50.684,-19.617 82.488,-71.375 82.488,-131.484 C 345.449,62.875 282.535,0 204.977,0 L 19.4961,0.0390625 C 8.73047,0.0390625 0,8.77344 0,19.5156 L 0,519.094 c 0,10.769 8.73047,19.492 19.4961,19.492 l 166.1059,0"
             style="fill:#467d97;fill-opacity:1;fill-rule:nonzero;stroke:none"
             id="path22" /><path
             d="m 117.695,95.3672 c -2.476,0 -4.593,2.1172 -4.593,4.5937 l 0,112.6291 c 0,2.469 2.117,4.594 4.593,4.594 l 7.071,0 c 2.468,0 4.613,-2.125 4.613,-4.594 l 0,-49.895 43.844,0 0,49.895 c 0,2.469 2.121,4.594 4.593,4.594 l 7.071,0 c 2.472,0 4.593,-2.125 4.593,-4.594 l 0,-112.6291 c 0,-2.4765 -2.121,-4.5937 -4.593,-4.5937 l -7.071,0 c -2.472,0 -4.593,2.1172 -4.593,4.5937 l 0,48.4181 -43.844,0 0,-48.4181 c 0,-2.4765 -2.145,-4.5937 -4.613,-4.5937 l -7.071,0"
             style="fill:#fcd205;fill-opacity:1;fill-rule:nonzero;stroke:none"
             id="path24" /><path
             d="m 117.227,321.836 c -2.477,0 -4.594,2.117 -4.594,4.594 l 0,112.644 c 0,2.473 2.117,4.614 4.594,4.614 l 67.757,0 c 2.473,0 4.594,-2.141 4.594,-4.614 l 0,-4.773 c 0,-2.477 -2.121,-4.594 -4.594,-4.594 l -56.078,0 0,-39.148 47.754,0 c 2.488,0 4.613,-2.121 4.613,-4.598 l 0,-4.789 c 0,-2.477 -2.125,-4.594 -4.613,-4.594 l -47.754,0 0,-50.148 c 0,-2.477 -2.121,-4.594 -4.593,-4.594 l -7.086,0"
             style="fill:#fcd205;fill-opacity:1;fill-rule:nonzero;stroke:none"
             id="path26" /><path
             d="m 410.621,489.852 8.406,0 c 7.207,0 9.758,2.777 9.758,9.086 0,6.226 -2.324,9.082 -9.461,9.082 l -8.703,0 0,-18.168 z m -0.078,24.027 8.559,0 c 6.078,0 7.429,2.547 7.429,7.957 0,5.398 -1.726,8.184 -7.804,8.184 l -8.184,0 0,-16.141 z m -4.879,-29.805 c -1.051,0 -1.953,0.895 -1.953,1.953 l 0,47.821 c 0,1.047 0.902,1.953 1.953,1.953 l 13.285,0 c 10.891,0 14.864,-5.711 14.864,-13.821 0,-5.398 -1.348,-8.328 -6.301,-10.429 5.027,-1.422 8.633,-5.332 8.633,-12.985 0,-10.285 -6.758,-14.492 -16.372,-14.492 l -14.109,0"
             style="fill:#467d97;fill-opacity:1;fill-rule:nonzero;stroke:none"
             id="path28" /><path
             d="m 462.32,517.559 c -4.355,0 -7.054,-2.258 -7.586,-11.27 l 14.946,0 c 0,8.645 -1.953,11.27 -7.36,11.27 z m 0.825,-34.465 c -9.832,0 -15.391,5.703 -15.391,19.824 0,14.258 5.855,19.738 14.719,19.738 8.929,0 14.035,-5.097 14.035,-18.691 l 0,-1.348 c 0,-0.672 -0.528,-1.203 -1.199,-1.203 l -20.645,0 c 0.145,-10.281 2.402,-12.84 8.633,-12.84 3.226,0 5.332,0.977 7.277,2.332 0.906,0.676 2.18,0.449 2.781,-0.379 l 1.2,-1.57 c 0.601,-0.832 0.449,-2.113 -0.45,-2.707 -3.074,-2.176 -6.23,-3.156 -10.96,-3.156"
             style="fill:#467d97;fill-opacity:1;fill-rule:nonzero;stroke:none"
             id="path30" /><path
             d="m 491.531,484.074 c -1.047,0 -1.953,0.895 -1.953,1.953 l 0,33.707 c 0,1.047 0.906,1.946 1.953,1.946 l 1.125,0 c 1.129,0 2.106,-0.821 2.328,-1.946 l 0.676,-3.379 c 2.778,3.45 6.231,6.008 10.586,6.008 0.223,0 0.527,0 0.75,-0.078 0.305,-0.078 0.602,-0.371 0.527,-0.676 l -0.527,-5.254 c -0.07,-0.523 -0.601,-0.972 -1.199,-0.906 -0.375,0.078 -0.824,0.078 -1.203,0.078 -3.449,0 -5.781,-1.277 -8.559,-3.828 l 0,-25.672 c 0,-1.058 -0.898,-1.953 -1.949,-1.953 l -2.555,0"
             style="fill:#467d97;fill-opacity:1;fill-rule:nonzero;stroke:none"
             id="path32" /><path
             d="m 521.055,484.074 c -1.051,0 -1.953,0.895 -1.953,1.953 l 0,33.707 c 0,1.047 0.902,1.946 1.953,1.946 l 1.125,0 c 1.125,0 2.101,-0.821 2.328,-1.875 l 0.597,-2.774 c 3.309,3.301 7.059,5.625 11.489,5.625 5.402,0 9.086,-2.773 9.086,-9.16 l 0,-27.469 c 0,-1.058 -0.907,-1.953 -1.953,-1.953 l -2.555,0 c -1.051,0 -1.949,0.895 -1.949,1.953 l 0,25.446 c 0,4.281 -1.2,5.48 -4.578,5.48 -3.004,0 -6.383,-2.098 -9.086,-4.5 l 0,-26.426 c 0,-1.058 -0.903,-1.953 -1.95,-1.953 l -2.554,0"
             style="fill:#467d97;fill-opacity:1;fill-rule:nonzero;stroke:none"
             id="path34" /><path
             d="m 573.313,517.559 c -4.36,0 -7.059,-2.258 -7.586,-11.27 l 14.941,0 c 0,8.645 -1.953,11.27 -7.355,11.27 z m 0.824,-34.465 c -9.836,0 -15.391,5.703 -15.391,19.824 0,14.258 5.859,19.738 14.715,19.738 8.934,0 14.039,-5.097 14.039,-18.691 l 0,-1.348 c 0,-0.672 -0.527,-1.203 -1.199,-1.203 l -20.649,0 c 0.153,-10.281 2.407,-12.84 8.633,-12.84 3.231,0 5.328,0.977 7.281,2.332 0.907,0.676 2.18,0.449 2.782,-0.379 l 1.199,-1.57 c 0.601,-0.832 0.449,-2.113 -0.449,-2.707 -3.082,-2.176 -6.231,-3.156 -10.961,-3.156"
             style="fill:#467d97;fill-opacity:1;fill-rule:nonzero;stroke:none"
             id="path36" /><path
             d="m 602.527,484.074 c -1.047,0 -1.953,0.895 -1.953,1.953 l 0,33.707 c 0,1.047 0.906,1.946 1.953,1.946 l 1.125,0 c 1.129,0 2.106,-0.821 2.328,-1.946 l 0.676,-3.379 c 2.778,3.45 6.231,6.008 10.586,6.008 0.223,0 0.528,0 0.75,-0.078 0.305,-0.078 0.602,-0.371 0.528,-0.676 l -0.528,-5.254 c -0.07,-0.523 -0.597,-0.972 -1.199,-0.906 -0.375,0.078 -0.824,0.078 -1.203,0.078 -3.449,0 -5.781,-1.277 -8.559,-3.828 l 0,-25.672 c 0,-1.058 -0.898,-1.953 -1.949,-1.953 l -2.555,0"
             style="fill:#467d97;fill-opacity:1;fill-rule:nonzero;stroke:none"
             id="path38" /><path
             d="m 406.41,394.07 c -1.051,0 -1.945,0.903 -1.945,1.953 l 0,47.825 c 0,1.047 0.894,1.953 1.945,1.953 l 21.852,0 c 1.051,0 1.949,-0.906 1.949,-1.953 l 0,-2.032 c 0,-1.043 -0.898,-1.953 -1.949,-1.953 l -16.895,0 0,-15.683 13.363,0 c 1.051,0 1.954,-0.91 1.954,-1.953 l 0,-2.032 c 0,-1.047 -0.903,-1.953 -1.954,-1.953 l -13.363,0 0,-22.219 c 0,-1.05 -0.898,-1.953 -1.949,-1.953 l -3.008,0"
             style="fill:#467d97;fill-opacity:1;fill-rule:nonzero;stroke:none"
             id="path40" /><path
             d="m 450.371,398.203 c 3.676,0 6.453,2.481 8.258,4.5 l 0,9.992 -2.25,0 c -9.465,0 -11.266,-2.402 -11.266,-7.89 0,-4.95 1.575,-6.602 5.258,-6.602 z m -0.824,-5.105 c -7.207,0 -11.34,3.972 -11.34,11.707 0,8.562 5.031,12.539 17.344,12.539 l 3.078,0 0,2.929 c 0,4.2 -0.527,6.758 -5.406,6.758 -3.227,0 -6.383,-1.133 -9.235,-2.558 -0.976,-0.45 -2.175,-0.071 -2.625,0.91 l -0.754,1.426 c -0.449,0.972 -0.078,2.175 0.899,2.703 3.379,1.797 7.285,3.144 12.387,3.144 7.359,0 11.187,-3.301 11.187,-11.328 l 0,-25.305 c 0,-1.05 -0.898,-1.953 -1.953,-1.953 l -1.121,0 c -1.129,0 -2.18,0.754 -2.481,1.875 l -0.523,1.875 c -2.18,-2.398 -5.332,-4.722 -9.457,-4.722"
             style="fill:#467d97;fill-opacity:1;fill-rule:nonzero;stroke:none"
             id="path42" /><path
             d="m 493.102,393.098 c -9.61,0 -14.942,6.304 -14.942,19.824 0,14.336 5.707,19.734 15.016,19.734 3.601,0 6.457,-0.82 9.16,-3 0.902,-0.672 0.977,-1.875 0.297,-2.703 l -1.203,-1.504 c -0.746,-0.82 -1.95,-0.898 -2.774,-0.222 -1.652,1.277 -3.23,1.953 -5.707,1.953 -5.703,0 -7.883,-2.473 -7.883,-14.258 0,-11.567 2.407,-14.348 8.411,-14.348 2.324,0 3.902,0.899 5.476,2.18 0.828,0.672 2.106,0.601 2.781,-0.227 l 1.352,-1.425 c 0.746,-0.75 0.676,-2.032 -0.152,-2.707 -2.473,-2.176 -5.555,-3.297 -9.832,-3.297"
             style="fill:#467d97;fill-opacity:1;fill-rule:nonzero;stroke:none"
             id="path44" /><path
             d="m 517.891,394.07 c -1.051,0 -1.953,0.903 -1.953,1.953 l 0,50.45 c 0,1.047 0.902,1.953 1.953,1.953 l 2.554,0 c 1.047,0 1.95,-0.906 1.95,-1.953 l 0,-18.993 c 3.304,3.079 6.683,5.176 11.035,5.176 5.402,0 9.086,-2.773 9.086,-9.16 l 0,-27.473 c 0,-1.05 -0.907,-1.953 -1.953,-1.953 l -2.555,0 c -1.051,0 -1.949,0.903 -1.949,1.953 l 0,25.454 c 0,4.277 -1.2,5.476 -4.579,5.476 -3.003,0 -6.382,-2.098 -9.085,-4.504 l 0,-26.426 c 0,-1.05 -0.903,-1.953 -1.95,-1.953 l -2.554,0"
             style="fill:#467d97;fill-opacity:1;fill-rule:nonzero;stroke:none"
             id="path46" /><path
             d="m 559.496,394.07 c -1.055,0 -1.953,0.903 -1.953,1.953 l 0,50.45 c 0,1.047 0.898,1.953 1.953,1.953 l 2.551,0 c 1.055,0 1.953,-0.906 1.953,-1.953 l 0,-18.993 c 3.305,3.079 6.684,5.176 11.035,5.176 5.403,0 9.086,-2.773 9.086,-9.16 l 0,-27.473 c 0,-1.05 -0.902,-1.953 -1.953,-1.953 l -2.555,0 c -1.05,0 -1.953,0.903 -1.953,1.953 l 0,25.454 c 0,4.277 -1.199,5.476 -4.574,5.476 -3.004,0 -6.383,-2.098 -9.086,-4.504 l 0,-26.426 c 0,-1.05 -0.898,-1.953 -1.953,-1.953 l -2.551,0"
             style="fill:#467d97;fill-opacity:1;fill-rule:nonzero;stroke:none"
             id="path48" /><path
             d="m 612.621,398.203 c 5.707,0 8.41,3.074 8.41,14.641 0,11.629 -2.777,14.715 -8.48,14.715 -5.711,0 -8.41,-3.008 -8.41,-14.637 0,-11.567 2.777,-14.719 8.48,-14.719 z m 0,-5.105 c -9.16,0 -15.391,5.703 -15.391,19.824 0,14.109 6.086,19.734 15.243,19.734 9.16,0 15.465,-5.625 15.465,-19.734 0,-14.121 -6.157,-19.824 -15.317,-19.824"
             style="fill:#467d97;fill-opacity:1;fill-rule:nonzero;stroke:none"
             id="path50" /><path
             d="m 654.23,393.098 c -9.613,0 -14.945,6.304 -14.945,19.824 0,14.336 5.711,19.734 15.016,19.734 3.605,0 6.457,-0.82 9.16,-3 0.898,-0.672 0.977,-1.875 0.305,-2.703 l -1.203,-1.504 c -0.75,-0.82 -1.954,-0.898 -2.778,-0.222 -1.656,1.277 -3.226,1.953 -5.707,1.953 -5.703,0 -7.883,-2.473 -7.883,-14.258 0,-11.567 2.403,-14.348 8.41,-14.348 2.325,0 3.903,0.899 5.477,2.18 0.824,0.672 2.106,0.601 2.777,-0.227 l 1.356,-1.425 c 0.75,-0.75 0.672,-2.032 -0.152,-2.707 -2.477,-2.176 -5.555,-3.297 -9.833,-3.297"
             style="fill:#467d97;fill-opacity:1;fill-rule:nonzero;stroke:none"
             id="path52" /><path
             d="m 679.023,394.07 c -1.05,0 -1.953,0.903 -1.953,1.953 l 0,50.45 c 0,1.047 0.903,1.953 1.953,1.953 l 2.555,0 c 1.051,0 1.945,-0.906 1.945,-1.953 l 0,-18.993 c 3.309,3.079 6.688,5.176 11.04,5.176 5.402,0 9.085,-2.773 9.085,-9.16 l 0,-27.473 c 0,-1.05 -0.906,-1.953 -1.953,-1.953 l -2.554,0 c -1.051,0 -1.95,0.903 -1.95,1.953 l 0,25.454 c 0,4.277 -1.199,5.476 -4.578,5.476 -3.004,0 -6.383,-2.098 -9.09,-4.504 l 0,-26.426 c 0,-1.05 -0.894,-1.953 -1.945,-1.953 l -2.555,0"
             style="fill:#467d97;fill-opacity:1;fill-rule:nonzero;stroke:none"
             id="path54" /><path
             d="m 727.582,393.098 c -4.129,0 -8.105,1.343 -10.883,2.925 -0.902,0.598 -1.203,1.797 -0.679,2.707 l 0.832,1.426 c 0.519,0.977 1.722,1.27 2.625,0.75 2.628,-1.504 5.328,-2.398 8.41,-2.398 5.101,0 6.679,2.019 6.679,5.547 0,4.207 -1.953,5.027 -7.961,6.687 -5.253,1.426 -9.609,4.199 -9.609,11.629 0,5.481 3.531,10.285 11.789,10.285 3.602,0 6.309,-0.593 8.711,-1.57 0.977,-0.449 1.426,-1.652 0.977,-2.629 l -0.68,-1.504 c -0.449,-0.976 -1.578,-1.504 -2.625,-1.055 -2.18,0.977 -3.902,1.282 -6.16,1.282 -4.051,0 -5.926,-1.426 -5.926,-4.653 0,-3.535 1.57,-4.429 6.754,-5.855 5.777,-1.574 11.039,-3.828 11.039,-12.317 0,-7.8 -4.434,-11.257 -13.293,-11.257"
             style="fill:#467d97;fill-opacity:1;fill-rule:nonzero;stroke:none"
             id="path56" /><path
             d="m 766.797,393.098 c -9.609,0 -14.942,6.304 -14.942,19.824 0,14.336 5.708,19.734 15.016,19.734 3.602,0 6.453,-0.82 9.16,-3 0.899,-0.672 0.977,-1.875 0.301,-2.703 l -1.199,-1.504 c -0.754,-0.82 -1.953,-0.898 -2.778,-0.222 -1.656,1.277 -3.23,1.953 -5.71,1.953 -5.704,0 -7.879,-2.473 -7.879,-14.258 0,-11.567 2.402,-14.348 8.406,-14.348 2.324,0 3.902,0.899 5.48,2.18 0.825,0.672 2.106,0.601 2.778,-0.227 l 1.351,-1.425 c 0.754,-0.75 0.676,-2.032 -0.148,-2.707 -2.477,-2.176 -5.559,-3.297 -9.836,-3.297"
             style="fill:#467d97;fill-opacity:1;fill-rule:nonzero;stroke:none"
             id="path58" /><path
             d="m 791.586,394.07 c -1.055,0 -1.953,0.903 -1.953,1.953 l 0,50.45 c 0,1.047 0.898,1.953 1.953,1.953 l 2.551,0 c 1.054,0 1.953,-0.906 1.953,-1.953 l 0,-18.993 c 3.305,3.079 6.683,5.176 11.035,5.176 5.402,0 9.086,-2.773 9.086,-9.16 l 0,-27.473 c 0,-1.05 -0.902,-1.953 -1.953,-1.953 l -2.555,0 c -1.051,0 -1.953,0.903 -1.953,1.953 l 0,25.454 c 0,4.277 -1.199,5.476 -4.574,5.476 -3.004,0 -6.383,-2.098 -9.086,-4.504 l 0,-26.426 c 0,-1.05 -0.899,-1.953 -1.953,-1.953 l -2.551,0"
             style="fill:#467d97;fill-opacity:1;fill-rule:nonzero;stroke:none"
             id="path60" /><path
             d="m 840.68,393.098 c -5.41,0 -9.61,3.074 -9.61,9.605 l 0,27.031 c 0,1.047 0.899,1.946 1.95,1.946 l 2.55,0 c 1.051,0 1.953,-0.899 1.953,-1.946 l 0,-25 c 0,-4.429 1.5,-5.933 4.879,-5.933 3.004,0 6.231,2.027 9.008,4.512 l 0,26.421 c 0,1.047 0.903,1.946 1.953,1.946 l 2.555,0 c 1.051,0 1.949,-0.899 1.949,-1.946 l 0,-33.711 c 0,-1.05 -0.898,-1.953 -1.949,-1.953 l -1.129,0 c -1.129,0 -2.098,0.832 -2.328,1.875 l -0.602,2.785 c -3.148,-3.234 -6.754,-5.632 -11.179,-5.632"
             style="fill:#467d97;fill-opacity:1;fill-rule:nonzero;stroke:none"
             id="path62" /><path
             d="m 880,393.32 c -4.805,0 -6.832,2.559 -6.832,9.16 l 0,43.993 c 0,1.047 0.898,1.953 1.953,1.953 l 2.551,0 c 1.055,0 1.953,-0.906 1.953,-1.953 l 0,-45.196 c 0,-1.875 0.824,-2.625 2.625,-2.625 0.305,0 0.602,0 0.824,0.078 0.379,0 0.754,-0.222 0.828,-0.605 l 0.375,-2.18 c 0.227,-1.043 -0.449,-2.097 -1.5,-2.324 -0.902,-0.144 -1.879,-0.301 -2.777,-0.301"
             style="fill:#467d97;fill-opacity:1;fill-rule:nonzero;stroke:none"
             id="path64" /><path
             d="m 908.043,427.559 c -4.355,0 -7.059,-2.254 -7.582,-11.27 l 14.937,0 c 0,8.645 -1.953,11.27 -7.355,11.27 z m 0.824,-34.461 c -9.836,0 -15.39,5.703 -15.39,19.824 0,14.258 5.855,19.734 14.714,19.734 8.934,0 14.039,-5.097 14.039,-18.691 l 0,-1.348 c 0,-0.676 -0.527,-1.203 -1.199,-1.203 l -20.644,0 c 0.144,-10.281 2.402,-12.84 8.633,-12.84 3.226,0 5.332,0.977 7.281,2.332 0.902,0.676 2.176,0.449 2.777,-0.379 l 1.199,-1.574 c 0.602,-0.828 0.45,-2.105 -0.449,-2.703 -3.074,-2.18 -6.23,-3.152 -10.961,-3.152"
             style="fill:#467d97;fill-opacity:1;fill-rule:nonzero;stroke:none"
             id="path66" /></g></g></g></g></svg>