<?xml version="1.0" encoding="UTF-8" standalone="no"?>
<!-- Created with Inkscape (http://www.inkscape.org/) -->

<svg
   xmlns:dc="http://purl.org/dc/elements/1.1/"
   xmlns:cc="http://creativecommons.org/ns#"
   xmlns:rdf="http://www.w3.org/1999/02/22-rdf-syntax-ns#"
   xmlns:svg="http://www.w3.org/2000/svg"
   xmlns="http://www.w3.org/2000/svg"
   xmlns:sodipodi="http://sodipodi.sourceforge.net/DTD/sodipodi-0.dtd"
   xmlns:inkscape="http://www.inkscape.org/namespaces/inkscape"
   id="svg2"
   version="1.1"
   inkscape:version="0.48.5 r10040"
   width="130.34865"
   height="67.32325"
   xml:space="preserve"
   sodipodi:docname="logo-en.svg"><metadata
     id="metadata8"><rdf:RDF><cc:Work
         rdf:about=""><dc:format>image/svg+xml</dc:format><dc:type
           rdf:resource="http://purl.org/dc/dcmitype/StillImage" /><dc:title></dc:title></cc:Work></rdf:RDF></metadata><defs
     id="defs6"><clipPath
       clipPathUnits="userSpaceOnUse"
       id="clipPath18"><path
         d="m 0,0 922.23,0 0,538.586 L 0,538.586 0,0 z"
         id="path20"
         inkscape:connector-curvature="0" /></clipPath></defs><sodipodi:namedview
     pagecolor="#ffffff"
     bordercolor="#666666"
     borderopacity="1"
     objecttolerance="10"
     gridtolerance="10"
     guidetolerance="10"
     inkscape:pageopacity="0"
     inkscape:pageshadow="2"
     inkscape:window-width="889"
     inkscape:window-height="781"
     id="namedview4"
     showgrid="false"
     inkscape:zoom="6.9925926"
     inkscape:cx="64.932998"
     inkscape:cy="68.072034"
     inkscape:window-x="271"
     inkscape:window-y="47"
     inkscape:window-maximized="0"
     inkscape:current-layer="g10"
     fit-margin-top="0"
     fit-margin-left="0"
     fit-margin-right="0"
     fit-margin-bottom="0" /><g
     id="g10"
     inkscape:groupmode="layer"
     inkscape:label="logo"
     transform="matrix(1.25,0,0,-1.25,0,67.32325)"><path
       inkscape:connector-curvature="0"
       id="path22"
       style="fill:#467d97;fill-opacity:1;fill-rule:nonzero;stroke:none"
       d="m 18.5602,53.8586 c 7.755,0 14.0449,-6.2867 14.0449,-14.0449 0,-5.2102 -2.4153,-9.7317 -6.3223,-12.1828 -0.0765,-0.0485 -0.132,-0.1211 -0.132,-0.2161 0,-0.1714 0.1359,-0.2152 0.1453,-0.2191 5.0684,-1.9617 8.2488,-7.1375 8.2488,-13.1484 C 34.5449,6.2875 28.2535,0 20.4977,0 L 1.94961,0.00390625 C 0.873047,0.00390625 0,0.877344 0,1.95156 L 0,51.9094 c 0,1.0769 0.873047,1.9492 1.94961,1.9492 l 16.61059,0" /><path
       inkscape:connector-curvature="0"
       id="path24"
       style="fill:#fcd205;fill-opacity:1;fill-rule:nonzero;stroke:none"
       d="m 11.7695,9.53672 c -0.2476,0 -0.4593,0.21172 -0.4593,0.45937 l 0,11.26291 c 0,0.2469 0.2117,0.4594 0.4593,0.4594 l 0.7071,0 c 0.2468,0 0.4613,-0.2125 0.4613,-0.4594 l 0,-4.9895 4.3844,0 0,4.9895 c 0,0.2469 0.2121,0.4594 0.4593,0.4594 l 0.7071,0 c 0.2472,0 0.4593,-0.2125 0.4593,-0.4594 l 0,-11.26291 c 0,-0.24765 -0.2121,-0.45937 -0.4593,-0.45937 l -0.7071,0 c -0.2472,0 -0.4593,0.21172 -0.4593,0.45937 l 0,4.84181 -4.3844,0 0,-4.84181 c 0,-0.24765 -0.2145,-0.45937 -0.4613,-0.45937 l -0.7071,0" /><path
       inkscape:connector-curvature="0"
       id="path26"
       style="fill:#fcd205;fill-opacity:1;fill-rule:nonzero;stroke:none"
       d="m 11.7227,32.1836 c -0.2477,0 -0.4594,0.2117 -0.4594,0.4594 l 0,11.2644 c 0,0.2473 0.2117,0.4614 0.4594,0.4614 l 6.7757,0 c 0.2473,0 0.4594,-0.2141 0.4594,-0.4614 l 0,-0.4773 c 0,-0.2477 -0.2121,-0.4594 -0.4594,-0.4594 l -5.6078,0 0,-3.9148 4.7754,0 c 0.2488,0 0.4613,-0.2121 0.4613,-0.4598 l 0,-0.4789 c 0,-0.2477 -0.2125,-0.4594 -0.4613,-0.4594 l -4.7754,0 0,-5.0148 c 0,-0.2477 -0.2121,-0.4594 -0.4593,-0.4594 l -0.7086,0" /><text
       xml:space="preserve"
       style="font-size:11.55966663px;font-style:normal;font-variant:normal;font-weight:normal;font-stretch:normal;line-height:125%;letter-spacing:0px;word-spacing:0px;fill:#467d97;fill-opacity:1;stroke:none;font-family:Constantia;-inkscape-font-specification:Constantia"
       x="40.459648"
       y="-47.22646"
       id="text3153"
       sodipodi:linespacing="125%"
       transform="scale(0.97670303,-1.0238527)"><tspan
         sodipodi:role="line"
         id="tspan3155"
         x="40.459648"
         y="-47.22646"
         style="font-size:7.06424141px;font-style:normal;font-variant:normal;font-weight:normal;font-stretch:normal;fill:#467d97;fill-opacity:1;font-family:News Gothic MT;-inkscape-font-specification:News Gothic MT">Bern University</tspan><tspan
         sodipodi:role="line"
         x="40.459648"
         y="-38.396156"
         id="tspan3157"
         style="font-size:7.06424141px;font-style:normal;font-variant:normal;font-weight:normal;font-stretch:normal;fill:#467d97;fill-opacity:1;font-family:News Gothic MT;-inkscape-font-specification:News Gothic MT">of Applied Sciences</tspan></text>
</g></svg>